<?xml version="1.0" encoding="utf-8"?>
<!-- Generator: Adobe Illustrator 19.1.0, SVG Export Plug-In . SVG Version: 6.00 Build 0)  -->
<svg version="1.1" id="Слой_1" xmlns="http://www.w3.org/2000/svg" xmlns:xlink="http://www.w3.org/1999/xlink" x="0px" y="0px"
	 viewBox="-297 388.3 16.7 16.7" enable-background="new -297 388.3 16.7 16.7" xml:space="preserve">
<path d="M-288.6,388.3c4.6,0,8.4,3.7,8.4,8.4c0,4.7-3.7,8.4-8.4,8.4c-4.7-0.1-8.4-3.8-8.4-8.4
	S-293.3,388.3-288.6,388.3L-288.6,388.3z M-291.6,396.4c0,0.1,0,0,0.1,0.1l0.1,0.1c0.1,0.1,0.5,0.7,0.6,0.8l0,0l0.1,0.3
	c0.1,0,0.4,0.4,0.5,0.6l1,1.4c0.2,0.3,0.3,0.3,0.7,0.5c0.4,0.2,3.2,1.4,3.4,1.4c0.1,0,0,0,0-0.1c0-0.4-0.4-3.4-0.5-4
	c0-0.4-0.7-1.1-0.9-1.4c-0.3-0.4-0.7-1-1-1.3l-0.1-0.2c0-0.1-0.5-0.7-0.5-0.7c-0.2-0.2,0.1,0-0.3-0.4c-0.1-0.2-1.4-1.9-1.5-2
	c-1.2-0.9-4.2,1.5-3.2,2.9C-292.9,394.6-291.7,396.3-291.6,396.4L-291.6,396.4z M-292.6,393.9c0.1,0,0.2-0.3,0.4-0.6
	c0.2-0.2,0.4-0.4,0.5-0.5c0.6-0.4,0.8-0.5,1.5-0.7c-0.5-0.3-1.4,0.1-1.7,0.4C-292.2,392.7-292.7,393.3-292.6,393.9L-292.6,393.9z
	 M-291.1,393c-0.2,0.1-1.4,1.1-1.1,1.5c0.1,0.2,0.2,0.4,0.4,0.6c0.3-0.7,0.7-1,1.1-1.3l0.1-0.1c0,0,0.7-0.3,0.8-0.3
	c0-0.1,0-0.1-0.1-0.2l-0.3-0.6h-0.2C-290.6,392.6-290.9,392.9-291.1,393L-291.1,393z M-288.6,399.4c0.8-1.4,0.2-1.9-0.4-2.8
	l-1.4-1.9c0-0.1-0.1-0.1-0.1-0.1l-0.2-0.2c-0.1,0.1-0.1,0.1-0.2,0.3c-0.8,0.8-0.6,0.8,0,1.6c0.2,0.2,0.3,0.4,0.5,0.6
	c0.2,0.4,0.5,0.8,0.8,1.2l0.8,1.1C-288.7,399.4-288.8,399.3-288.6,399.4L-288.6,399.4z M-288,397.8c0.1,0.6-0.2,1.2-0.4,1.7l2.1,1
	l0.5-0.4c0-0.6-0.2-1.6-0.3-2.3c0-0.3,0-0.3-0.3-0.2C-287.1,397.9-287.5,397.8-288,397.8L-288,397.8z M-290.5,394.2
	c0.1,0.2,0.3,0.4,0.4,0.5c0.2,0.2,0.3,0.4,0.4,0.6c0.2,0.3,1.5,2.2,1.7,2.2c0.6,0.1,1.1,0.1,1.6-0.2c0-0.1-1.8-2.5-2-2.8l-0.7-1
	C-289.5,393.6-290.3,394-290.5,394.2L-290.5,394.2z"/>
</svg>
