<?xml version="1.0" encoding="utf-8"?>
<!-- Generator: Adobe Illustrator 19.0.0, SVG Export Plug-In . SVG Version: 6.00 Build 0)  -->
<svg version="1.1" id="Layer_1" xmlns="http://www.w3.org/2000/svg" xmlns:xlink="http://www.w3.org/1999/xlink" x="0px" y="0px"
	 viewBox="0 0 30.5 30.5" style="enable-background:new 0 0 30.5 30.5;" xml:space="preserve">

<path id="XMLID_2_" class="st0" d="M15.2,0c8.4,0,15.2,6.8,15.2,15.2c0,8.4-6.8,15.2-15.2,15.2C6.8,30.5,0,23.7,0,15.2
	C0,6.8,6.8,0,15.2,0L15.2,0z M14.1,19.7c-0.4,1.6-3.1,4.8-0.9,5.8c1.9,0.8,2.6-1.9,3.7-4.4c0.8,0.3,1.9,0.8,2.7,1.2
	c1,0.5,2.3,1,3-0.3c0.9-1.9-1.9-2.7-4.4-3.8c0.4-0.5,3.9-2.6,2.1-4.2c-2.1-1.9-2.5,2.7-7.4,2.7c-1.3,0-2.2-0.6-3,0.5
	c-0.6,0.9-0.1,2,0.7,2.3C11.5,19.8,13.1,19.8,14.1,19.7L14.1,19.7z M12.2,5c-2.6,0.4-4.9,2.8-4.4,5.9c1.1,6.9,11.5,5.2,10.3-1.7
	C17.7,6.6,15.2,4.5,12.2,5L12.2,5z M12.2,8.1c-2.6,1.1-1.2,4.9,1.5,4C16.4,11.2,15,7,12.2,8.1L12.2,8.1z"/>
</svg>
