<?xml version="1.0" encoding="utf-8"?>
<!-- Generator: Adobe Illustrator 19.1.0, SVG Export Plug-In . SVG Version: 6.00 Build 0)  -->
<svg version="1.1" id="Layer_1" xmlns="http://www.w3.org/2000/svg" xmlns:xlink="http://www.w3.org/1999/xlink" x="0px" y="0px"
	 viewBox="0 0 30.5 30.5" enable-background="new 0 0 30.5 30.5" xml:space="preserve">
<path fill-rule="evenodd" clip-rule="evenodd" d="M15.2,0c8.4,0,15.2,6.8,15.2,15.2c0,8.4-6.8,15.2-15.2,15.2S0,23.7,0,15.2
	C0,6.8,6.8,0,15.2,0L15.2,0z M8.2,6.9H17c1.5,0,2.6,0.4,3.4,1.2c0.8,0.8,1.2,1.8,1.2,3c0,1-0.3,1.8-0.8,2.5
	c-0.4,0.5-0.9,0.8-1.6,1.1c1.1,0.3,1.9,0.8,2.4,1.5c0.5,0.7,0.8,1.6,0.8,2.6c0,0.9-0.2,1.6-0.5,2.3c-0.4,0.7-0.9,1.2-1.5,1.6
	c-0.4,0.2-1,0.4-1.8,0.5c-1.1,0.2-1.8,0.2-2.1,0.2H8.2V6.9L8.2,6.9z M13,13.5h2c0.7,0,1.2-0.1,1.5-0.4c0.3-0.3,0.4-0.7,0.4-1.2
	c0-0.5-0.1-0.9-0.4-1.1c-0.3-0.3-0.8-0.4-1.5-0.4H13V13.5L13,13.5z M13,20h2.4c0.8,0,1.4-0.2,1.7-0.5c0.3-0.3,0.5-0.7,0.5-1.3
	c0-0.5-0.2-0.9-0.5-1.2c-0.3-0.3-0.9-0.5-1.7-0.5H13V20L13,20z"/>
</svg>
